<?xml version="1.0" encoding="utf-8"?>
<!-- Generator: Adobe Illustrator 23.0.1, SVG Export Plug-In . SVG Version: 6.00 Build 0)  -->
<svg version="1.1" id="Layer_1" xmlns="http://www.w3.org/2000/svg" xmlns:xlink="http://www.w3.org/1999/xlink" x="0px" y="0px"
	 width="220px" height="160px" viewBox="0 0 220 160">
<style type="text/css">
	.st0{filter:url(#filter-1);}
	.st1{fill:#FFFFFF;}
	.st2{fill:#BFBFBF;}
	.st3{fill:#999999;}
	.st4{fill:#F5F5F5;}
	.st5{fill-rule:evenodd;clip-rule:evenodd;fill:#454545;}
	.st6{fill:#454545;}
	.st7{fill:#1A1A1A;}
	.st8{font-family:'IBMPlexSans';}
	.st9{font-size:24px;}
</style>
<filter  filterUnits="objectBoundingBox" height="151.7%" id="filter-1" width="134.4%" x="-17.2%" y="-24.2%">
	<feOffset  dx="0" dy="2" in="SourceAlpha" result="shadowOffsetOuter1"></feOffset>
	<feGaussianBlur  in="shadowOffsetOuter1" result="shadowBlurOuter1" stdDeviation="10"></feGaussianBlur>
	
		<feColorMatrix  in="shadowBlurOuter1" result="shadowMatrixOuter1" type="matrix" values="0 0 0 0 0.101960784   0 0 0 0 0.101960784   0 0 0 0 0.101960784  0 0 0 0.24 0">
		</feColorMatrix>
	<feMerge>
		<feMergeNode  in="shadowMatrixOuter1"></feMergeNode>
		<feMergeNode  in="SourceGraphic"></feMergeNode>
	</feMerge>
</filter>
<title>Multiselect-with-dropshadow</title>
<desc>Created with Sketch.</desc>
<g id="Page-1">
	<g id="Overview_illustrationer" transform="translate(-490.000000, -1342.000000)">
		<g id="Multiselect" transform="translate(510.000000, 1360.000000)" class="st0">
			<rect id="Rectangle-11_1_" class="st1" width="180" height="120"/>
			<rect class="st2" width="180" height="24"/>
			<path id="Rectangle-12-Copy_1_" class="st3" d="M78,8h24c2.2,0,4,1.8,4,4l0,0c0,2.2-1.8,4-4,4H78c-2.2,0-4-1.8-4-4l0,0
				C74,9.8,75.8,8,78,8z"/>
			<rect id="Rectangle-7_1_" y="24" class="st4" width="180" height="1"/>
			
				<g id="ic_arrow_dropdown_3_" transform="translate(160.000000, 12.000000) scale(1, -1) translate(-160.000000, -12.000000) translate(148.000000, 0.000000)">
				<g id="Shape_3_">
					<polygon class="st5" points="8.7,16.4 13.1,11.8 8.7,7.2 10.1,5.8 15.8,11.8 10.1,17.8 					"/>
				</g>
			</g>
			
				<g id="ic_arrow_dropdown_2_" transform="translate(160.000000, 12.000000) scale(1, -1) translate(-160.000000, -12.000000) translate(148.000000, 0.000000)">
				<g id="Shape_2_">
					<polygon class="st5" points="-125.7,7.2 -130.1,11.8 -125.7,16.4 -127.1,17.8 -132.8,11.8 -127.1,5.8 					"/>
				</g>
			</g>
			<rect x="19.1" y="32.8" class="st4" width="21.7" height="21.7"/>
			<rect x="48.4" y="32.8" class="st4" width="21.7" height="21.7"/>
			<rect x="77.8" y="32.8" class="st4" width="21.7" height="21.7"/>
			<rect x="107.1" y="32.8" class="st4" width="21.7" height="21.7"/>
			<rect x="136.4" y="32.8" class="st4" width="21.7" height="21.7"/>
			<rect x="19.1" y="62.1" class="st4" width="21.7" height="21.7"/>
			<rect x="48.4" y="62.1" class="st4" width="21.7" height="21.7"/>
			<rect x="77.8" y="62.1" class="st4" width="21.7" height="21.7"/>
			<rect x="107.1" y="62.1" class="st6" width="21.7" height="21.7"/>
			<rect x="136.4" y="62.1" class="st4" width="21.7" height="21.7"/>
			<rect x="19.1" y="91.5" class="st4" width="21.7" height="21.7"/>
			<rect x="48.4" y="91.5" class="st4" width="21.7" height="21.7"/>
			<rect x="77.8" y="91.5" class="st4" width="21.7" height="21.7"/>
			<rect x="107.1" y="91.5" class="st4" width="21.7" height="21.7"/>
			<rect x="136.4" y="91.5" class="st4" width="21.7" height="21.7"/>
			<text xmlns="http://www.w3.org/2000/svg" id="JS" font-family="IBMPlexSans, IBM Plex Sans" font-size="24" font-weight="normal" fill="#1A1A1A">
                    <tspan x="147" y="111">JS</tspan>
                </text>
		</g>
	</g>
</g>
</svg>
