<svg id="Layer_1" data-name="Layer 1" xmlns="http://www.w3.org/2000/svg" viewBox="0 0 283.46 65.2">
<style type="text/css">
	.st0{fill:#F5F5F5;}
	.st1{fill:#BFBFBF;}
</style>
<rect y="0" class="st0" width="200" height="60"/>
<g>
	<path class="st1" d="M63.4,40.5v-21H66v18.8h8.9v2.2H63.4z"/>
	<path class="st1" d="M85.5,40.9c-1.4,0-2.6-0.2-3.7-0.7s-2-1.2-2.8-2.1c-0.8-0.9-1.4-2-1.8-3.4c-0.4-1.4-0.6-2.9-0.6-4.7
		c0-1.8,0.2-3.3,0.6-4.7c0.4-1.3,1-2.5,1.8-3.4c0.8-0.9,1.7-1.6,2.8-2.1c1.1-0.5,2.3-0.7,3.7-0.7c1.3,0,2.6,0.2,3.7,0.7
		c1.1,0.5,2,1.2,2.8,2.1c0.8,0.9,1.4,2.1,1.8,3.4c0.4,1.3,0.6,2.9,0.6,4.7c0,1.8-0.2,3.3-0.6,4.7c-0.4,1.4-1,2.5-1.8,3.4
		c-0.8,0.9-1.7,1.6-2.8,2.1C88,40.6,86.8,40.9,85.5,40.9z M85.5,38.6c0.9,0,1.7-0.2,2.5-0.5c0.8-0.3,1.4-0.8,2-1.4
		c0.6-0.6,1-1.3,1.3-2.2s0.5-1.8,0.5-2.8v-3.5c0-1-0.2-2-0.5-2.8s-0.7-1.6-1.3-2.2c-0.6-0.6-1.2-1.1-2-1.4c-0.8-0.3-1.6-0.5-2.5-0.5
		c-0.9,0-1.7,0.2-2.5,0.5c-0.8,0.3-1.4,0.8-2,1.4c-0.6,0.6-1,1.3-1.3,2.2c-0.3,0.8-0.5,1.8-0.5,2.8v3.5c0,1,0.2,2,0.5,2.8
		c0.3,0.8,0.7,1.6,1.3,2.2c0.6,0.6,1.2,1.1,2,1.4C83.7,38.5,84.6,38.6,85.5,38.6z"/>
	<path class="st1" d="M112.5,37.5L112.5,37.5c-0.4,1-1,1.8-2,2.4c-1,0.6-2.3,1-3.9,1c-1.3,0-2.5-0.2-3.5-0.7c-1.1-0.5-2-1.2-2.8-2.1
		c-0.8-0.9-1.4-2-1.8-3.4c-0.4-1.4-0.6-2.9-0.6-4.7c0-1.7,0.2-3.3,0.6-4.6s1-2.5,1.8-3.4c0.8-0.9,1.7-1.6,2.8-2.1
		c1.1-0.5,2.3-0.7,3.7-0.7c1.9,0,3.5,0.4,4.7,1.2c1.3,0.8,2.2,1.9,2.9,3.3l-2.1,1.3c-0.5-1.1-1.2-2-2.1-2.6c-1-0.6-2.1-1-3.4-1
		c-0.9,0-1.8,0.2-2.5,0.5s-1.4,0.8-2,1.4c-0.6,0.6-1,1.3-1.3,2.2c-0.3,0.8-0.5,1.8-0.5,2.8v3.4c0,1,0.2,2,0.5,2.9s0.7,1.6,1.3,2.2
		c0.6,0.6,1.2,1.1,2,1.4c0.8,0.3,1.7,0.5,2.7,0.5c0.7,0,1.4-0.1,2.1-0.3s1.2-0.5,1.7-0.9s0.9-0.9,1.2-1.4c0.3-0.6,0.4-1.3,0.4-2
		v-2.1h-4.6v-2.2h7.1v10.8h-2.3V37.5z"/>
	<path class="st1" d="M127.7,40.9c-1.4,0-2.6-0.2-3.7-0.7c-1.1-0.5-2-1.2-2.8-2.1c-0.8-0.9-1.4-2-1.8-3.4c-0.4-1.4-0.6-2.9-0.6-4.7
		c0-1.8,0.2-3.3,0.6-4.7c0.4-1.3,1-2.5,1.8-3.4c0.8-0.9,1.7-1.6,2.8-2.1c1.1-0.5,2.3-0.7,3.7-0.7c1.3,0,2.6,0.2,3.7,0.7
		c1.1,0.5,2,1.2,2.8,2.1c0.8,0.9,1.4,2.1,1.8,3.4c0.4,1.3,0.6,2.9,0.6,4.7c0,1.8-0.2,3.3-0.6,4.7c-0.4,1.4-1,2.5-1.8,3.4
		c-0.8,0.9-1.7,1.6-2.8,2.1C130.2,40.6,129,40.9,127.7,40.9z M127.7,38.6c0.9,0,1.7-0.2,2.5-0.5c0.8-0.3,1.4-0.8,2-1.4
		c0.6-0.6,1-1.3,1.3-2.2s0.5-1.8,0.5-2.8v-3.5c0-1-0.2-2-0.5-2.8s-0.7-1.6-1.3-2.2c-0.6-0.6-1.2-1.1-2-1.4c-0.8-0.3-1.6-0.5-2.5-0.5
		s-1.7,0.2-2.5,0.5s-1.4,0.8-2,1.4c-0.6,0.6-1,1.3-1.3,2.2s-0.5,1.8-0.5,2.8v3.5c0,1,0.2,2,0.5,2.8s0.7,1.6,1.3,2.2
		c0.6,0.6,1.2,1.1,2,1.4C125.9,38.5,126.7,38.6,127.7,38.6z"/>
</g>
</svg>
